<svg version="1.1" viewBox="0.0 0.0 480.0 480.0" fill="none" stroke="none" stroke-linecap="square" stroke-miterlimit="10" xmlns:xlink="http://www.w3.org/1999/xlink" xmlns="http://www.w3.org/2000/svg"><clipPath id="p.0"><path d="m0 0l480.0 0l0 480.0l-480.0 0l0 -480.0z" clip-rule="nonzero"/></clipPath><g clip-path="url(#p.0)"><path fill="#000000" fill-opacity="0.0" d="m0 0l480.0 0l0 480.0l-480.0 0z" fill-rule="evenodd"/><path fill="#000000" fill-opacity="0.0" d="m62.110237 42.425198l355.77954 0l0 395.1496l-355.77954 0z" fill-rule="evenodd"/><path fill="#ffffff" d="m245.08322 381.99545q-36.078125 0 -62.984375 -11.3125q-26.890625 -11.3125 -44.609375 -30.65625q-17.703117 -19.359375 -26.562492 -43.953125q-8.84375 -24.609375 -8.84375 -51.171875q0 -26.90625 8.84375 -51.828125q8.859375 -24.9375 26.078117 -44.453125q17.21875 -19.515625 43.125 -30.984383q25.921875 -11.484375 60.03125 -11.484375q27.546875 0 52.3125 9.03125q24.765625 9.015625 43.953125 26.234383q19.1875 17.21875 30.34375 42.140625q11.15625 24.921875 11.15625 56.75q0 22.625 -5.75 39.84375q-5.734375 17.21875 -17.046875 27.0625q-11.3125 9.84375 -27.71875 9.84375q-12.796875 0 -21.65625 -5.578125q-8.84375 -5.578125 -14.09375 -13.609375q-5.25 -8.046875 -7.21875 -15.90625l-1.3125 0q-2.296875 6.234375 -8.703125 14.4375q-6.390625 8.1875 -17.375 14.421875q-10.984375 6.234375 -27.0625 6.234375q-20.984375 0 -34.765625 -10.65625q-13.765625 -10.671875 -20.65625 -27.234375q-6.890625 -16.5625 -6.890625 -34.59375q0 -18.046875 6.890625 -34.4375q6.890625 -16.40625 20.65625 -26.90625q13.78125 -10.5 34.4375 -10.5q14.4375 0 24.28125 4.921875q9.84375 4.921875 15.90625 11.65625q6.0625 6.71875 9.015625 11.96875l1.3125 0l0 -25.921875l16.734375 0l0 67.90625q0 5.234375 0.484375 14.75q0.5 9.515625 3.28125 19.6875q2.796875 10.171875 9.1875 17.21875q6.390625 7.046875 17.875 7.046875q16.734375 0 25.09375 -16.390625q8.359375 -16.40625 8.359375 -44.9375q0 -28.875 -9.671875 -51.171875q-9.671875 -22.3125 -26.734375 -37.390625q-17.046875 -15.09375 -38.703125 -22.953125q-21.640625 -7.8750076 -45.921875 -7.8750076q-30.171875 0 -52.8125 10.171883q-22.625 10.15625 -37.875 27.546875q-15.25 17.375 -22.968742 39.515625q-7.703125 22.140625 -7.703125 45.765625q0 23.9375 7.703125 45.921875q7.7187424 21.96875 23.296867 39.1875q15.578125 17.21875 39.359375 27.21875q23.78125 10.015625 55.59375 10.015625q23.9375 0 41.484375 -4.765625q17.5625 -4.75 27.0625 -9.515625q9.515625 -4.75 9.515625 -4.75l6.234375 14.109375q0 0 -9.84375 5.078125q-9.84375 5.078125 -28.703125 10.15625q-18.859375 5.09375 -45.421875 5.09375zm-13.125 -79.703125q16.078125 0 26.5625 -8.359375q10.5 -8.359375 15.75 -21.640625q5.25 -13.296875 5.25 -27.390625q0 -14.4375 -5.25 -27.546875q-5.25 -13.125 -15.75 -21.484375q-10.484375 -8.375 -26.5625 -8.375q-15.734375 0 -26.234375 8.375q-10.5 8.359375 -15.75 21.484375q-5.234375 13.109375 -5.234375 27.546875q0 14.09375 5.234375 27.390625q5.25 13.28125 15.75 21.640625q10.5 8.359375 26.234375 8.359375z" fill-rule="nonzero"/></g></svg>