<svg version="1.1" viewBox="0.0 0.0 480.0 480.0" fill="none" stroke="none" stroke-linecap="square" stroke-miterlimit="10" xmlns:xlink="http://www.w3.org/1999/xlink" xmlns="http://www.w3.org/2000/svg"><clipPath id="p.0"><path d="m0 0l480.0 0l0 480.0l-480.0 0l0 -480.0z" clip-rule="nonzero"/></clipPath><g clip-path="url(#p.0)"><path fill="#000000" fill-opacity="0.0" d="m0 0l480.0 0l0 480.0l-480.0 0z" fill-rule="evenodd"/><path fill="#000000" fill-opacity="0.0" d="m50.110237 30.425198l355.77954 0l0 395.1496l-355.77954 0z" fill-rule="evenodd"/><path fill="#ffffff" d="m238.86023 414.2767q-36.734375 0 -67.078125 -12.140625q-30.34375 -12.125 -52.656242 -34.4375q-22.296875 -22.296875 -34.4375 -52.640625q-12.125 -30.34375 -12.125 -67.078125q0 -36.40625 12.125 -66.90625q12.140625 -30.5 34.4375 -52.796875q22.312492 -22.312508 52.656242 -34.453133q30.34375 -12.140625 67.078125 -12.140625q36.40625 0 66.90625 12.140625q30.5 12.140625 52.796875 34.453133q22.3125 22.296875 34.453125 52.796875q12.140625 30.5 12.140625 66.90625q0 30.171875 -8.203125 53.296875q-8.203125 23.125 -22.46875 36.25q-14.265625 13.125 -33.296875 13.125q-16.71875 0 -27.390625 -10.015625q-10.65625 -10.0 -10.65625 -26.0625l0 -12.46875q-6.234375 10.5 -16.890625 18.53125q-10.65625 8.03125 -23.296875 12.625q-12.625 4.59375 -25.40625 4.59375q-25.921875 0 -45.9375 -11.46875q-20.0 -11.484375 -31.15625 -31.8125q-11.140625 -20.34375 -11.140625 -46.59375q0 -26.234375 11.46875 -46.40625q11.484375 -20.171875 31.65625 -31.8125q20.171875 -11.65625 46.421875 -11.65625q26.234375 0 46.40625 11.65625q20.171875 11.640625 31.640625 31.8125q11.484375 20.171875 11.484375 46.40625l0 56.421875q0 10.5 3.765625 15.578125q3.78125 5.078125 10.671875 5.078125q10.5 0 18.859375 -9.828125q8.359375 -9.84375 13.109375 -27.21875q4.765625 -17.390625 4.765625 -40.03125q0 -30.828125 -10.328125 -56.578125q-10.328125 -25.75 -29.1875 -44.609375q-18.859375 -18.859383 -44.609375 -29.187508q-25.75 -10.328125 -56.578125 -10.328125q-31.171875 0 -56.921875 10.328125q-25.734375 10.328125 -44.59375 29.187508q-18.859367 18.859375 -29.031242 44.609375q-10.171875 25.75 -10.171875 56.578125q0 31.15625 10.171875 56.90625q10.171875 25.75 29.031242 44.609375q18.859375 18.859375 44.59375 29.03125q25.75 10.171875 56.921875 10.171875q14.421875 0 30.65625 -3.28125q16.234375 -3.28125 27.0625 -8.53125q8.53125 -3.9375 13.9375 -1.15625q5.421875 2.796875 5.421875 11.328125q0 6.890625 -9.84375 13.109375q-9.84375 6.234375 -27.234375 10.171875q-17.375 3.9375 -40.0 3.9375zm0 -102.328125q18.6875 0 33.109375 -8.03125q14.4375 -8.046875 22.640625 -22.46875q8.203125 -14.4375 8.203125 -33.46875q0 -18.6875 -8.203125 -33.125q-8.203125 -14.4375 -22.640625 -22.625q-14.421875 -8.203125 -33.109375 -8.203125q-19.03125 0 -33.46875 8.203125q-14.421875 8.1875 -22.46875 22.625q-8.03125 14.4375 -8.03125 33.125q0 19.03125 8.03125 33.46875q8.046875 14.421875 22.46875 22.46875q14.4375 8.03125 33.46875 8.03125z" fill-rule="nonzero"/></g></svg>