<svg version="1.1" viewBox="0.0 0.0 480.0 480.0" fill="none" stroke="none" stroke-linecap="square" stroke-miterlimit="10" xmlns:xlink="http://www.w3.org/1999/xlink" xmlns="http://www.w3.org/2000/svg"><clipPath id="p.0"><path d="m0 0l480.0 0l0 480.0l-480.0 0l0 -480.0z" clip-rule="nonzero"/></clipPath><g clip-path="url(#p.0)"><path fill="#000000" fill-opacity="0.0" d="m0 0l480.0 0l0 480.0l-480.0 0z" fill-rule="evenodd"/><path fill="#000000" fill-opacity="0.0" d="m52.110237 -21.574802l355.77954 0l0 395.1496l-355.77954 0z" fill-rule="evenodd"/><path fill="#ffffff" d="m230.26408 362.69983q-29.859375 0 -54.53125 -9.875q-24.65625 -9.859375 -42.796875 -27.984375q-18.124992 -18.125 -27.999992 -42.796875q-9.859375 -24.671875 -9.859375 -54.53125q0 -29.59375 9.859375 -54.390625q9.875 -24.8125 27.999992 -42.9375q18.140625 -18.140633 42.796875 -28.000008q24.671875 -9.875 54.53125 -9.875q29.593765 0 54.39064 9.875q24.8125 9.859375 42.9375 28.000008q18.140625 18.125 28.0 42.9375q9.875 24.796875 9.875 54.390625q0 24.53125 -6.671875 43.328125q-6.671875 18.796875 -18.265625 29.46875q-11.59375 10.671875 -27.0625 10.671875q-13.609375 0 -22.28125 -8.140625q-8.65625 -8.125 -8.65625 -21.203125l0 -10.125q-5.0625 8.53125 -13.734375 15.0625q-8.65625 6.53125 -18.937515 10.265625q-10.265625 3.734375 -20.65625 3.734375q-21.0625 0 -37.328125 -9.328125q-16.265625 -9.34375 -25.34375 -25.875q-9.0625 -16.53125 -9.0625 -37.859375q0 -21.328125 9.328125 -37.71875q9.34375 -16.40625 25.734375 -25.875q16.40625 -9.46875 37.734375 -9.46875q21.328125 0 37.73439 9.46875q16.40625 9.46875 25.734375 25.875q9.328125 16.390625 9.328125 37.71875l0 45.859375q0 8.53125 3.0625 12.671875q3.078125 4.125 8.671875 4.125q8.53125 0 15.328125 -8.0q6.8125 -8.0 10.671875 -22.125q3.859375 -14.140625 3.859375 -32.53125q0 -25.0625 -8.40625 -46.0q-8.390625 -20.9375 -23.71875 -36.265625q-15.328125 -15.328125 -36.265625 -23.718758q-20.937515 -8.40625 -46.000015 -8.40625q-25.328125 0 -46.265625 8.40625q-20.921875 8.390633 -36.265625 23.718758q-15.328125 15.328125 -23.593742 36.265625q-8.265625 20.9375 -8.265625 46.0q0 25.328125 8.265625 46.265625q8.265617 20.9375 23.593742 36.265625q15.34375 15.328125 36.265625 23.59375q20.9375 8.265625 46.265625 8.265625q11.734375 0 24.9375 -2.671875q13.20314 -2.65625 22.000015 -6.921875q6.921875 -3.203125 11.328125 -0.9375q4.40625 2.265625 4.40625 9.203125q0 5.59375 -8.0 10.65625q-8.0 5.078125 -22.140625 8.265625q-14.125015 3.203125 -32.531265 3.203125zm0 -83.1875q15.203125 0 26.937515 -6.53125q11.734375 -6.53125 18.390625 -18.265625q6.671875 -11.734375 6.671875 -27.203125q0 -15.203125 -6.671875 -26.9375q-6.65625 -11.734375 -18.390625 -18.390625q-11.73439 -6.671875 -26.937515 -6.671875q-15.46875 0 -27.203125 6.671875q-11.71875 6.65625 -18.265625 18.390625q-6.53125 11.734375 -6.53125 26.9375q0 15.46875 6.53125 27.203125q6.546875 11.734375 18.265625 18.265625q11.734375 6.53125 27.203125 6.53125z" fill-rule="nonzero"/></g></svg>